# xmcd
#
# Track frame offsets:
#	150
#	18479
#	35136
#	55538
#	69009
#	84864
#	100851
#	116978
#	132187
#	148240
#	163166
#	181330
#	193522
#	210863
#	233139
#	261041
#
# Disc length: 3486 seconds
#
# Revision: 1
# Processed by: cddbd v1.5.1PL2 Copyright (c) Steve Scherf et al.
# Submitted via: audiograbber 1.83.01
#
DISCID=d60d9c10
DTITLE=karaoke - ASK_mixed country Vol.4, disc 1
DYEAR=1900
DGENRE=
TTITLE0=ANDY GRIGGS - SHE THINKS SHE NEEDS ME
TTITLE1=BIG and RICH - save a horse ride a cowboy
TTITLE2=brad paisley and allison Krauss - Whiskey lullaby
TTITLE3=brooks and dunn - thats what she gets for loving me
TTITLE4=buddy jewell - sweet southern comfort
TTITLE5=dierks bentley - my last name
TTITLE6=gretchen wilson - redneck woman
TTITLE7=gretchen wilson - here for the party
TTITLE8=jimmy buffett with martina mcbride - trip around the sun
TTITLE9=joo dee messina - my give a damn's busted
TTITLE10=joe nichols - if nobody believed in you
TTITLE11=josh gracin - nothin' to lose
TTITLE12=josh gracin - i want you to live
TTITLE13=keith urban - you'll think of me
TTITLE14=kenny chesney with unkle kracker - when the sun goes down
TTITLE15=data track - Data Track
EXTD=
EXTT0=
EXTT1=
EXTT2=
EXTT3=
EXTT4=
EXTT5=
EXTT6=
EXTT7=
EXTT8=
EXTT9=
EXTT10=
EXTT11=
EXTT12=
EXTT13=
EXTT14=
EXTT15=
PLAYORDER=
